<?xml version="1.0" encoding="utf-8"?>
<!-- Generator: Adobe Illustrator 27.8.1, SVG Export Plug-In . SVG Version: 6.00 Build 0)  -->
<svg version="1.1" xmlns="http://www.w3.org/2000/svg" xmlns:xlink="http://www.w3.org/1999/xlink" x="0px" y="0px"
	 viewBox="0 0 1000 107.2" style="enable-background:new 0 0 1000 107.2;" xml:space="preserve">
<style type="text/css">
	.st0{fill:#002E6D;}
	.st1{fill:#FFFFFF;}
	.st2{clip-path:url(#SVGID_00000076562465796003656470000016875556851594256807_);}
	.st3{fill:#ED40A9;}
	.st4{fill:#B14FC5;}
	.st5{fill:#00A0DF;}
	.st6{fill:#3DAE2B;}
	.st7{fill:#F38B00;}
	.st8{fill:none;}
</style>
<g id="Background">
	<rect class="st0" width="1000" height="107"/>
</g>
<g id="Text">
	<g>
		<path class="st1" d="M212.8,55c0.8,1.2,1.2,2.6,1.2,4.2c0,2.6-1,4.6-2.9,6s-4.6,2.1-7.8,2.1h-14.4l2.2-28.7h13.5
			c3.1,0,5.6,0.7,7.2,2c1.7,1.3,2.5,3.1,2.5,5.2c0,1.6-0.4,2.9-1.2,4s-2.1,2-3.7,2.6C210.9,53,212,53.8,212.8,55z M206.1,61
			c0.7-0.5,1-1.3,1-2.4c0-1-0.3-1.8-1-2.3c-0.6-0.5-1.6-0.8-3-0.8h-6l-0.5,6.1h6C204.3,61.7,205.4,61.4,206.1,61z M206.2,49.3
			c0.7-0.4,1-1.2,1-2.2c0-0.9-0.3-1.6-0.9-2.1c-0.6-0.5-1.6-0.7-3-0.7h-5.3l-0.4,5.6h5.2C204.4,49.9,205.5,49.7,206.2,49.3z"/>
		<path class="st1" d="M233.9,48.8c1.4,1.3,2.1,3.3,2.1,6c0,0.3,0,0.8-0.1,1.5l-0.9,11.2h-6.8l0.2-2.5c-0.5,0.9-1.2,1.6-2.1,2.1
			s-1.9,0.8-3.1,0.8c-1.3,0-2.5-0.3-3.6-0.8c-1.1-0.5-1.9-1.2-2.5-2.1c-0.6-0.9-0.9-1.9-0.9-3c0-1.5,0.4-2.8,1.1-3.7
			c0.8-0.9,2-1.6,3.6-2.1c1.7-0.4,3.9-0.7,6.6-0.7h1.5l0-0.3c0.1-1-0.2-1.7-0.7-2.2c-0.5-0.5-1.4-0.7-2.5-0.7c-0.9,0-2,0.2-3.2,0.5
			c-1.2,0.4-2.3,0.8-3.3,1.4l-1.5-4.8c1.1-0.7,2.5-1.3,4.3-1.8c1.7-0.5,3.4-0.7,5.1-0.7C230.4,46.8,232.5,47.5,233.9,48.8z
			 M227.8,61.8c0.6-0.7,1-1.6,1.1-2.7l0-0.4h-1.1c-1.6,0-2.8,0.2-3.5,0.5c-0.7,0.4-1.1,0.9-1.1,1.8c0,0.6,0.2,1,0.6,1.4
			c0.4,0.4,0.9,0.5,1.6,0.5C226.4,62.8,227.2,62.5,227.8,61.8z"/>
		<path class="st1" d="M239.2,67.3l2.3-28.7h7.2l-2.3,28.7H239.2z"/>
		<path class="st1" d="M250.6,67.3l2.3-28.7h7.2l-2.3,28.7H250.6z"/>
		<path class="st1" d="M279.3,48.8c1.4,1.3,2.1,3.3,2.1,6c0,0.3,0,0.8-0.1,1.5l-0.9,11.2h-6.8l0.2-2.5c-0.5,0.9-1.2,1.6-2.1,2.1
			s-1.9,0.8-3.1,0.8c-1.3,0-2.5-0.3-3.6-0.8c-1.1-0.5-1.9-1.2-2.5-2.1c-0.6-0.9-0.9-1.9-0.9-3c0-1.5,0.4-2.8,1.1-3.7
			c0.8-0.9,2-1.6,3.6-2.1c1.7-0.4,3.9-0.7,6.6-0.7h1.5l0-0.3c0.1-1-0.2-1.7-0.7-2.2c-0.5-0.5-1.4-0.7-2.5-0.7c-0.9,0-2,0.2-3.2,0.5
			c-1.2,0.4-2.3,0.8-3.3,1.4l-1.5-4.8c1.1-0.7,2.5-1.3,4.3-1.8c1.7-0.5,3.4-0.7,5.1-0.7C275.7,46.8,277.8,47.5,279.3,48.8z
			 M273.2,61.8c0.6-0.7,1-1.6,1.1-2.7l0-0.4h-1.1c-1.6,0-2.8,0.2-3.5,0.5c-0.7,0.4-1.1,0.9-1.1,1.8c0,0.6,0.2,1,0.6,1.4
			c0.4,0.4,0.9,0.5,1.6,0.5C271.7,62.8,272.5,62.5,273.2,61.8z"/>
		<path class="st1" d="M301.2,46.7l-0.1,6l-4.4,0.4c-1.5,0.2-2.6,0.5-3.1,1.1c-0.6,0.6-0.9,1.6-1.1,3l-0.8,10.1h-7.2l1.6-20h6.9
			l-0.2,2.6c1.5-1.8,3.8-2.9,6.8-3.1L301.2,46.7z"/>
		<path class="st1" d="M324.6,38.6l-2.3,28.7h-7.2l0.2-2.2c-0.7,0.8-1.5,1.4-2.5,1.9c-1,0.4-2.1,0.7-3.3,0.7c-1.7,0-3.2-0.4-4.5-1.2
			c-1.3-0.8-2.3-1.9-3-3.3c-0.7-1.4-1.1-3.1-1.1-5.1c0-2.2,0.4-4.1,1.2-5.8s1.9-3,3.4-4c1.5-0.9,3.1-1.4,5-1.4
			c2.5,0,4.5,0.9,5.8,2.6l0.9-10.8H324.6z M315,60.9c0.7-1,1.1-2.3,1.1-3.8c0-1.6-0.3-2.8-1-3.6c-0.7-0.8-1.6-1.2-2.8-1.2
			c-1.2,0-2.2,0.5-3,1.5c-0.7,1-1.1,2.3-1.1,3.9c0,1.5,0.3,2.7,1,3.5c0.7,0.8,1.6,1.2,2.9,1.2C313.3,62.3,314.3,61.8,315,60.9z"/>
		<path class="st1" d="M338.8,67.3l2.3-28.7h7.5l-1.8,22.6h12.2l-0.4,6.1H338.8z"/>
		<path class="st1" d="M361.5,67.3l1.6-20h7.2l-1.6,20H361.5z M363.7,37.3h7.6l-0.5,6.6h-7.5L363.7,37.3z"/>
		<path class="st1" d="M392.8,48.7c1.1,1.3,1.7,3.1,1.7,5.6c0,0.6,0,1.1,0,1.4l-0.9,11.7h-7.2l0.9-11.4c0.1-1.1-0.1-2-0.5-2.6
			c-0.4-0.6-1.1-0.9-2.1-0.9c-1.1,0-1.9,0.3-2.5,1c-0.6,0.7-0.9,1.6-1,2.8l-0.9,11.2H373l1.6-20h7l-0.2,2.1c0.7-0.8,1.6-1.5,2.7-1.9
			c1.1-0.5,2.3-0.7,3.6-0.7C390,46.8,391.7,47.5,392.8,48.7z"/>
		<path class="st1" d="M421.6,47.3L413,57l7.3,10.3h-8.7l-6.1-8.6l-0.7,8.6h-7.2l2.2-28.7h7.2l-1.3,16.9l7.1-8.2H421.6z"/>
		<path class="st1" d="M455.6,44.4h-13.1l-0.4,5.5h12.3l-0.4,5.7h-12.3l-0.5,5.9h13.1l-0.5,5.8h-20.4l2.3-28.7h20.4L455.6,44.4z"/>
		<path class="st1" d="M479.9,47.3l-8.8,9.7l7.7,10.3h-8.3l-3.8-5.3l-4.6,5.3h-8.6l9.3-10.4l-7.2-9.6h8.3l3.4,4.7l4-4.7H479.9z"/>
		<path class="st1" d="M489.1,59.2l0,0.6c0,1.8,1,2.6,2.9,2.6c0.5,0,1.1,0,1.9-0.1l-0.8,5.1c-0.8,0.1-1.7,0.2-2.4,0.2
			c-5.9,0-8.8-2.4-8.8-7.3c0-0.5,0-0.9,0-1.2l0.5-6.6h-3.7l0.4-5.3h3.7l0.4-5.8h7.2l-0.4,5.8h4.8l-0.4,5.3h-4.8L489.1,59.2z"/>
		<path class="st1" d="M512.8,49.3c1.6,1.7,2.5,4.1,2.5,7.2c0,0.7,0,1.4-0.1,2.2h-12.3c0.3,2.4,1.8,3.7,4.4,3.7
			c1.9,0,3.8-0.6,5.6-1.9l1.5,4.8c-0.9,0.8-2,1.4-3.4,1.8c-1.3,0.4-2.8,0.6-4.3,0.6c-2.1,0-4-0.4-5.7-1.2s-2.9-2-3.8-3.4
			c-0.9-1.5-1.4-3.2-1.4-5.2c0-2.1,0.5-4,1.4-5.7c0.9-1.7,2.1-3,3.7-3.9c1.6-0.9,3.3-1.4,5.2-1.4C508.9,46.8,511.1,47.7,512.8,49.3z
			 M504.1,52.5c-0.6,0.6-1,1.5-1.2,2.7h6.5c-0.1-2.4-1.1-3.6-3-3.6C505.4,51.7,504.6,52,504.1,52.5z"/>
		<path class="st1" d="M537.6,48.7c1.1,1.3,1.7,3.1,1.7,5.6c0,0.6,0,1.1,0,1.4l-0.9,11.7h-7.2l0.9-11.4c0.1-1.1-0.1-2-0.5-2.6
			c-0.4-0.6-1.1-0.9-2.1-0.9c-1.1,0-1.9,0.3-2.5,1c-0.6,0.7-0.9,1.6-1,2.8L525,67.3h-7.2l1.6-20h7l-0.2,2.1c0.7-0.8,1.6-1.5,2.7-1.9
			c1.1-0.5,2.3-0.7,3.6-0.7C534.8,46.8,536.4,47.5,537.6,48.7z"/>
		<path class="st1" d="M545.8,67.1c-1.5-0.4-3.1-1-4.6-1.8l2.2-4.9c1.1,0.7,2.3,1.3,3.7,1.7c1.4,0.4,2.7,0.6,3.9,0.6
			c0.8,0,1.5-0.1,1.9-0.3s0.6-0.5,0.6-0.8c0-0.4-0.3-0.8-0.8-1c-0.5-0.2-1.4-0.5-2.6-0.9c-1.4-0.4-2.6-0.8-3.6-1.2
			c-1-0.4-1.8-1-2.5-1.8c-0.7-0.8-1.1-1.9-1.1-3.2c0-1.3,0.4-2.5,1.1-3.5c0.8-1,1.8-1.8,3.2-2.3s3-0.8,4.8-0.8
			c1.5,0,3.1,0.2,4.6,0.6c1.5,0.4,2.8,1,3.8,1.8l-2.2,4.7c-1-0.7-2.1-1.2-3.2-1.6c-1.1-0.4-2.2-0.5-3.2-0.5c-0.9,0-1.5,0.1-2,0.3
			c-0.4,0.2-0.7,0.5-0.7,0.8c0,0.4,0.3,0.8,0.8,1.1c0.6,0.3,1.4,0.6,2.7,0.9c1.5,0.4,2.7,0.8,3.6,1.2s1.8,1,2.5,1.8s1.1,1.9,1.1,3.2
			c0,2.1-0.8,3.7-2.4,4.8c-1.6,1.2-3.8,1.7-6.6,1.7C549,67.7,547.3,67.5,545.8,67.1z"/>
		<path class="st1" d="M562.3,67.3l1.6-20h7.2l-1.6,20H562.3z M564.5,37.3h7.6l-0.5,6.6H564L564.5,37.3z"/>
		<path class="st1" d="M578.8,66.4c-1.7-0.8-2.9-2-3.8-3.5s-1.3-3.2-1.3-5.2c0-2.3,0.5-4.2,1.4-5.8c0.9-1.6,2.2-2.9,3.9-3.8
			c1.7-0.9,3.6-1.3,5.8-1.3s4.2,0.4,5.8,1.2s2.9,2,3.8,3.5c0.9,1.5,1.3,3.2,1.3,5.2c0,2.3-0.5,4.2-1.4,5.9c-0.9,1.6-2.2,2.9-3.9,3.8
			c-1.7,0.9-3.6,1.3-5.8,1.3S580.4,67.2,578.8,66.4z M587.6,60.7c0.6-1.1,1-2.5,1-4.2c0-1.5-0.3-2.6-0.9-3.3
			c-0.6-0.7-1.5-1.1-2.8-1.1c-1.4,0-2.5,0.5-3.1,1.6s-1,2.4-1,4.1c0,1.5,0.3,2.6,0.9,3.4c0.6,0.7,1.5,1.1,2.8,1.1
			C585.9,62.3,586.9,61.8,587.6,60.7z"/>
		<path class="st1" d="M618,48.7c1.1,1.3,1.7,3.1,1.7,5.6c0,0.6,0,1.1,0,1.4l-0.9,11.7h-7.2l0.9-11.4c0.1-1.1-0.1-2-0.5-2.6
			c-0.4-0.6-1.1-0.9-2.1-0.9c-1.1,0-1.9,0.3-2.5,1c-0.6,0.7-0.9,1.6-1,2.8l-0.9,11.2h-7.2l1.6-20h7l-0.2,2.1
			c0.7-0.8,1.6-1.5,2.7-1.9c1.1-0.5,2.3-0.7,3.6-0.7C615.2,46.8,616.9,47.5,618,48.7z"/>
	</g>
</g>
<g id="Service_Lines">
	<g id="_x31__Line">
		<g>
			<defs>
				<rect id="SVGID_1_" width="148" height="107"/>
			</defs>
			<clipPath id="SVGID_00000175292392228744159190000006261134585971659655_">
				<use xlink:href="#SVGID_1_"  style="overflow:visible;"/>
			</clipPath>
			<g style="clip-path:url(#SVGID_00000175292392228744159190000006261134585971659655_);">
				
					<rect x="-141.1" y="67.3" transform="matrix(0.7071 -0.7071 0.7071 0.7071 -52.0633 20.729)" class="st3" width="280.2" height="11.8"/>
				
					<rect x="-151.3" y="60.9" transform="matrix(0.7071 -0.7071 0.7071 0.7071 -53.1736 5.2565)" class="st4" width="262.2" height="11.8"/>
				
					<rect x="-130.9" y="73.7" transform="matrix(0.7071 -0.7071 0.7071 0.7071 -51.0164 36.1681)" class="st5" width="298.2" height="11.8"/>
				<path class="st6" d="M-70.3,202.1l-8.4-8.4L55.4,59.7c8.3-8.2,19.3-12.8,30.9-12.8h20.5v11.8H86.3c-8.5,0-16.5,3.3-22.6,9.3
					L-70.3,202.1z"/>
				<path class="st7" d="M-47.3,58.7h-50.5V46.9h50.5c8.3,0,16.4-3.4,22.2-9.3l67.7-67.7l8.4,8.4L-16.7,46
					C-24.7,54.1-35.8,58.7-47.3,58.7z"/>
			</g>
		</g>
		<g>
			<path class="st8" d="M136.4,82.4c16.3,0,29.6-13.3,29.6-29.6c0-16.3-13.3-29.6-29.6-29.6c-16.3,0-29.6,13.3-29.6,29.6
				C106.8,69.1,120.1,82.4,136.4,82.4"/>
			<path class="st6" d="M136.4,85.4c-18,0-32.6-14.6-32.6-32.6s14.6-32.6,32.6-32.6S169,34.8,169,52.8S154.4,85.4,136.4,85.4z
				 M136.4,26.2c-14.7,0-26.6,12-26.6,26.6c0,14.7,12,26.6,26.6,26.6s26.6-12,26.6-26.6C163,38.1,151.1,26.2,136.4,26.2z"/>
			<path class="st1" d="M140.2,62.7c0-1.1,0.9-2,2-2c1.1,0,2,0.9,2,2c0,1.1-0.9,2-2,2C141.1,64.7,140.2,63.8,140.2,62.7 M128.8,59.1
				c-0.8,0-1.5-0.7-1.4-1.5L128,46c0.1-0.8,0.8-1.5,1.6-1.5l13.5,0c0.8,0,1.6,0.7,1.7,1.6l0.7,11.5c0,0.8-0.6,1.5-1.4,1.5H128.8z
				 M130.8,64.7c-1.1,0-2-0.9-2-2c0-1.1,0.9-2,2-2c1.1,0,2,0.9,2,2C132.8,63.8,131.9,64.7,130.8,64.7 M129.9,41.1
				c0-0.8,0.7-1.5,1.5-1.5h10.1c0.8,0,1.5,0.7,1.5,1.5v0.5c0,0.8-0.7,1.5-1.5,1.5h-10.1c-0.8,0-1.5-0.7-1.5-1.5V41.1z M136.4,33.3
				c0.7,0,3,0,4,0.1c-0.2,0.4-1,2.4-1.4,3.6h-5.1c-0.5-1.2-1.3-3.2-1.4-3.6C133.5,33.3,135.7,33.3,136.4,33.3 M143.6,67.1
				c0.9-0.2,1.9-0.9,2.3-1.7l1.1-2.2c0.5-1,0.9-2.7,0.8-3.8l-1.2-19.6c0-1.4-1.5-2.8-3.1-2.8h-3c0.5-1.2,1.3-3.3,1.4-3.6
				c1.3,0.1,1.5,0.3,1.6,0.3c0,0,0.1,0.2,0.1,0.2l-0.1-0.2c0,0.3,0.3,0.6,0.6,0.6c0.3,0,0.7-0.4,0.7-0.7c0-1-1.6-1.3-3-1.5
				c-1.1-0.1-2.9-0.3-5.5-0.3s-4.5,0.1-5.5,0.3c-1.4,0.2-3,0.5-3,1.5c0,0.3,0.4,0.7,0.7,0.7c0.3,0,0.6-0.2,0.6-0.6l-0.1,0.2
				c0,0,0.1-0.2,0.1-0.2c0,0,0.3-0.2,1.6-0.3c0.1,0.2,0.9,2.3,1.4,3.6h-2.8c-1.8,0-3.1,1.4-3.1,2.8l-1.2,19.6
				c-0.1,1.1,0.3,2.8,0.8,3.8l1.1,2.2c0.4,0.8,1.3,1.5,2.2,1.7l-4.3,6.5h3.6l4.2-6.4l7.4,0l4.2,6.4h3.6L143.6,67.1z"/>
		</g>
	</g>
</g>
</svg>
